<svg width="248" height="248" viewBox="0 0 248 248" fill="none" xmlns="http://www.w3.org/2000/svg">
<g clip-path="url(#clip0_1013_2)">
<path fill-rule="evenodd" clip-rule="evenodd" d="M73.212 182.298C76.2474 184.554 76.4375 184.481 76.3738 184.728C76.1076 185.771 76.2072 186.994 75.5674 187.855C73.7913 190.241 71.1161 189.467 70.7269 189.354C66.592 188.157 61.5434 180.88 60.2326 171.404C59.5593 166.544 60.2035 161.033 60.3076 160.138C61.9863 145.752 69.784 129.701 75.7229 121.427C80.7189 114.465 89.6026 105.684 92.5843 103.216C98.5903 98.2429 102.996 96.5911 106.545 95.3951C111.612 93.6862 118.426 92.6197 119.473 92.4556C122.841 91.9284 123.211 91.9498 124.518 91.698C124.807 91.6419 126.474 91.3187 128.134 92.4596C128.645 92.8104 129.101 93.2672 129.441 93.7882C129.607 94.0421 130.562 95.5032 130.146 97.5159C129.743 99.4644 128.344 100.399 128.101 100.563C127.047 101.268 126.982 101.128 125.747 101.41C123.492 101.925 119.948 103.041 119.448 103.198C112.61 105.351 109.58 106.913 105.992 108.716C101.377 111.037 98.6954 112.815 92.0654 118.878C86.1466 124.291 80.9426 130.369 75.3661 144.254C69.4071 159.093 70.3634 168.338 70.6586 171.519C70.9472 174.618 71.795 178.669 73.5833 181.139L73.7925 181.431C73.5609 181.768 73.3708 182.052 73.212 182.298ZM71.7748 181.216L71.7625 181.099L71.6395 181.113C71.6853 181.148 71.7301 181.182 71.7748 181.216Z" fill="#00513C"/>
<path fill-rule="evenodd" clip-rule="evenodd" d="M112.712 164.56C114.555 165.971 114.92 168.631 113.524 170.497C112.129 172.362 109.5 172.73 107.656 171.318C105.323 169.531 103.356 165.728 102.851 160.645C101.897 151.048 105.745 136.501 118.239 127.881C120.149 126.563 122.758 127.062 124.06 128.994C125.362 130.928 124.869 133.566 122.959 134.885C114.778 140.528 111.444 149.499 111.114 156.561C111.011 158.757 111.196 160.758 111.656 162.38C111.927 163.335 112.184 164.155 112.712 164.56Z" fill="#00513C"/>
<path d="M90.2436 83.0908C100.474 83.0908 108.767 74.6994 108.767 64.348C108.767 53.9967 100.474 45.6053 90.2436 45.6053C80.0131 45.6053 71.7197 53.9967 71.7197 64.348C71.7197 74.6994 80.0131 83.0908 90.2436 83.0908Z" fill="#00513C" stroke="#00513C" stroke-width="1.36748" stroke-miterlimit="1.5" stroke-linecap="round" stroke-linejoin="round"/>
<path d="M87.3205 79.8905C97.5509 79.8905 105.844 71.4991 105.844 61.1478C105.844 50.7964 97.5509 42.405 87.3205 42.405C77.09 42.405 68.7966 50.7964 68.7966 61.1478C68.7966 71.4991 77.09 79.8905 87.3205 79.8905Z" fill="#079769" stroke="#079769" stroke-width="1.36748" stroke-miterlimit="1.5" stroke-linecap="round" stroke-linejoin="round"/>
<path fill-rule="evenodd" clip-rule="evenodd" d="M118.401 193.64C114.785 196.194 110.253 198.785 104.695 200.95C90.8129 206.356 80.5842 204.496 75.3808 203.005C75.3561 202.998 72.0039 201.943 68.095 199.55C51.7996 189.578 44.2557 168.358 49.3773 148.294C49.7894 146.678 49.7837 146.68 50.2548 145.084C52.9816 136.56 56.2976 126.202 69.5093 111.776C69.9186 111.328 78.2019 100.56 97.1051 91.3295C118.869 80.7025 145.543 76.7994 168.021 89.0549C196.064 104.346 199.041 126.876 200.048 131.78C203.513 148.659 198.064 178.451 177.253 193.681C173.485 196.439 170.2 197.997 168.68 198.687C168.667 198.693 166.077 199.81 162.48 200.715C153.701 202.925 139.741 203.941 119.971 194.409C119.473 194.168 118.948 193.913 118.401 193.64ZM65.7859 150.005C65.7412 150.173 65.6927 150.348 65.6403 150.528C62.1273 162.634 66.9661 180.429 80.8097 184.955C82.2222 185.417 89.8916 189.566 104.322 183.742C101.707 181.087 99.1895 177.857 97.0071 173.895C96.2819 172.577 92.7108 166.157 91.5468 157.144C91.4173 156.138 91.0061 151.398 91.8456 145.793C94.3012 129.406 104.689 119.9 116.875 122.363C126.916 124.392 134.343 134.359 136.959 145.659C137.17 146.572 141.372 160.011 134.514 174.846C139.935 176.244 146.176 177.039 152.16 175.756C154.91 175.167 156.584 174.289 158.472 173.397C171.296 167.334 176.877 148.645 176.052 137.613C175.969 136.499 175.905 136.512 175.639 134.515C174.892 128.903 172.211 117.325 155.068 107.772C153.512 106.906 138.505 96.917 111.793 105.031C101.714 108.093 89.6975 113.999 82.0385 121.777C80.6365 123.2 75.6206 128.707 71.8297 135.257C68.3652 141.245 66.9233 146.332 65.7954 150.008L65.7859 150.005ZM122.064 170.276C127.16 162.242 126.829 153.529 125.735 148.956C124.581 144.133 120.465 136.73 115.29 135.829C113.806 135.57 112.793 136.009 112.495 136.155L112.498 136.162C109.731 137.722 107.548 144.942 109.932 153.337C110.286 154.585 112.1 164.804 122.064 170.276Z" fill="#079769"/>
</g>
<defs>
<clipPath id="clip0_1013_2">
<rect width="248" height="248" fill="white"/>
</clipPath>
</defs>
</svg>
